<svg width="318" height="517" viewBox="0 0 318 517" fill="none" xmlns="http://www.w3.org/2000/svg">
<path d="M0.0644531 517V93.5137C0.0644531 67.9928 9.17904 46.1178 27.4082 27.8887C45.6374 9.65951 67.6263 0.544922 93.375 0.544922C120.035 0.544922 142.024 9.43164 159.342 27.2051C177.571 9.43164 199.446 0.544922 224.967 0.544922C252.311 0.544922 274.527 9.43164 291.617 27.2051C308.935 45.2064 317.708 67.4232 317.936 93.8555V493.074L263.248 517L263.59 95.2227C263.59 83.8294 259.83 74.1452 252.311 66.1699C244.791 58.1947 235.904 54.207 225.65 54.207C214.941 54.207 205.826 58.1947 198.307 66.1699C190.559 74.373 186.686 83.9434 186.686 94.8809V95.2227L186.344 493.074L131.656 517L131.998 95.2227C131.998 83.8294 128.238 74.1452 120.719 66.1699C113.199 58.1947 104.312 54.207 94.0586 54.207C83.5768 54.207 74.4622 58.1947 66.7148 66.1699C58.9674 74.1452 55.0938 83.8294 55.0938 95.2227L54.752 493.074L0.0644531 517Z" fill="#E9E9E9"/>
</svg>
