<svg width="1000" height="1000" viewBox="0 0 1000 1000" fill="none" xmlns="http://www.w3.org/2000/svg">
<path d="M0 0H1000V1000H0V0Z" fill="url(#paint0_linear_3694_90)"/>
<path d="M341.064 769V345.514C341.064 319.993 350.179 298.118 368.408 279.889C386.637 261.66 408.626 252.545 434.375 252.545C461.035 252.545 483.024 261.432 500.342 279.205C518.571 261.432 540.446 252.545 565.967 252.545C593.311 252.545 615.527 261.432 632.617 279.205C649.935 297.206 658.708 319.423 658.936 345.855V745.074L604.248 769L604.59 347.223C604.59 335.829 600.83 326.145 593.311 318.17C585.791 310.195 576.904 306.207 566.65 306.207C555.941 306.207 546.826 310.195 539.307 318.17C531.559 326.373 527.686 335.943 527.686 346.881V347.223L527.344 745.074L472.656 769L472.998 347.223C472.998 335.829 469.238 326.145 461.719 318.17C454.199 310.195 445.312 306.207 435.059 306.207C424.577 306.207 415.462 310.195 407.715 318.17C399.967 326.145 396.094 335.829 396.094 347.223L395.752 745.074L341.064 769Z" fill="#E9E9E9"/>
<defs>
<linearGradient id="paint0_linear_3694_90" x1="9.50003" y1="-3.26337e-05" x2="1000" y2="1000" gradientUnits="userSpaceOnUse">
<stop stop-color="#020202"/>
<stop offset="1" stop-color="#252525"/>
</linearGradient>
</defs>
</svg>
